# xmcd CD database file
# Copyright (C) 1995-1998 Ti Kan
#
# Track frame offsets:
#	150
#	17292
#	33657
#	52585
#	75842
#	95322
#	109722
#	123422
#	144352
#	159032
#
# Disc length: 2354 seconds
#
# Revision: 1
# Processed by: cddbd v1.4b41PL1 Copyright (c) Steve Scherf et al.
# Submitted via: CDex 1.30
#
DISCID=5e09300a
DTITLE=Rosemary Rae - Believe
DYEAR=2000
DGENRE=Country
TTITLE0=Heart Of A Believer
TTITLE1=Am I The Only One Working On Us
TTITLE2=Momma's Little Angels
TTITLE3=When You Feel Good
TTITLE4=It Will Always Be You
TTITLE5=I LIke Playing With Fire
TTITLE6=He's There
TTITLE7=All I Have
TTITLE8=We Got To Make Love
TTITLE9=Someday You'll Want Me To Want You
EXTD=\n\nYEAR: 2000  ID3G:   2
EXTT0=
EXTT1=
EXTT2=
EXTT3=
EXTT4=
EXTT5=
EXTT6=
EXTT7=
EXTT8=
EXTT9=
PLAYORDER=
